<svg width="135" height="24" viewBox="0 0 135 24" color="#E7E94F" fill="none" xmlns="http://www.w3.org/2000/svg" className="absolute left-[30.69px] top-[184px]">
            <path d="M11.9447 0.929495C12.2439 0.00790071 13.5477 0.00789857 13.8469 0.929493L16.0365 7.67355C16.1704 8.08568 16.5544 8.36475 16.9877 8.36475H24.075C25.0435 8.36475 25.4464 9.60397 24.6631 10.1735L18.928 14.3435C18.5778 14.5982 18.4312 15.0493 18.565 15.4611L20.7553 22.2073C21.0544 23.1287 19.9996 23.8946 19.216 23.3249L13.4839 19.1571C13.1333 18.9022 12.6583 18.9022 12.3077 19.1571L6.57557 23.3249C5.79201 23.8946 4.7372 23.1287 5.03637 22.2073L7.22667 15.4611C7.36038 15.0493 7.21384 14.5982 6.86362 14.3435L1.12853 10.1736C0.345174 9.60397 0.74807 8.36475 1.71661 8.36475H8.80395C9.23726 8.36475 9.62127 8.08568 9.75508 7.67355L11.9447 0.929495Z" fill="#E7E94F"/>
            <path d="M37.9447 0.929495C38.2439 0.00790071 39.5477 0.00789857 39.8469 0.929493L42.0365 7.67355C42.1704 8.08568 42.5544 8.36475 42.9877 8.36475H50.075C51.0435 8.36475 51.4464 9.60397 50.6631 10.1735L44.928 14.3435C44.5778 14.5982 44.4312 15.0493 44.565 15.4611L46.7553 22.2073C47.0544 23.1287 45.9996 23.8946 45.216 23.3249L39.4839 19.1571C39.1333 18.9022 38.6583 18.9022 38.3077 19.1571L32.5756 23.3249C31.792 23.8946 30.7372 23.1287 31.0364 22.2073L33.2267 15.4611C33.3604 15.0493 33.2138 14.5982 32.8636 14.3435L27.1285 10.1736C26.3452 9.60397 26.7481 8.36475 27.7166 8.36475H34.804C35.2373 8.36475 35.6213 8.08568 35.7551 7.67355L37.9447 0.929495Z" fill="#E7E94F"/>
            <path d="M63.9447 0.929495C64.2439 0.00790071 65.5477 0.00789857 65.8469 0.929493L68.0365 7.67355C68.1704 8.08568 68.5544 8.36475 68.9877 8.36475H76.075C77.0435 8.36475 77.4464 9.60397 76.6631 10.1735L70.928 14.3435C70.5778 14.5982 70.4312 15.0493 70.565 15.4611L72.7553 22.2073C73.0544 23.1287 71.9996 23.8946 71.216 23.3249L65.4839 19.1571C65.1333 18.9022 64.6583 18.9022 64.3077 19.1571L58.5756 23.3249C57.792 23.8946 56.7372 23.1287 57.0364 22.2073L59.2267 15.4611C59.3604 15.0493 59.2138 14.5982 58.8636 14.3435L53.1285 10.1736C52.3452 9.60397 52.7481 8.36475 53.7166 8.36475H60.804C61.2373 8.36475 61.6213 8.08568 61.7551 7.67355L63.9447 0.929495Z" fill="#E7E94F"/>
            <path d="M89.9447 0.929495C90.2439 0.00790071 91.5477 0.00789857 91.8469 0.929493L94.0365 7.67355C94.1704 8.08568 94.5544 8.36475 94.9877 8.36475H102.075C103.043 8.36475 103.446 9.60397 102.663 10.1735L96.928 14.3435C96.5778 14.5982 96.4312 15.0493 96.565 15.4611L98.7553 22.2073C99.0544 23.1287 97.9996 23.8946 97.216 23.3249L91.4839 19.1571C91.1333 18.9022 90.6583 18.9022 90.3077 19.1571L84.5756 23.3249C83.792 23.8946 82.7372 23.1287 83.0364 22.2073L85.2267 15.4611C85.3604 15.0493 85.2138 14.5982 84.8636 14.3435L79.1285 10.1736C78.3452 9.60397 78.7481 8.36475 79.7166 8.36475H86.804C87.2373 8.36475 87.6213 8.08568 87.7551 7.67355L89.9447 0.929495Z" fill="#E7E94F"/>
            <path d="M115.945 0.929495C116.244 0.00790071 117.548 0.00789857 117.847 0.929493L120.037 7.67355C120.17 8.08568 120.554 8.36475 120.988 8.36475H128.075C129.044 8.36475 129.446 9.60397 128.663 10.1735L122.928 14.3435C122.578 14.5982 122.431 15.0493 122.565 15.4611L124.755 22.2073C125.054 23.1287 123.999 23.8946 123.216 23.3249L117.484 19.1571C117.133 18.9022 116.658 18.9022 116.308 19.1571L110.576 23.3249C109.792 23.8946 108.737 23.1287 109.036 22.2073L111.227 15.4611C111.36 15.0493 111.214 14.5982 110.864 14.3435L105.129 10.1736C104.345 9.60397 104.748 8.36475 105.717 8.36475H112.804C113.237 8.36475 113.621 8.08568 113.755 7.67355L115.945 0.929495Z" fill="#E7E94F"/>
          </svg>